# xmcd
#
# Track frame offsets: 
#        150
#        18823
#        45653
#        58210
#        78269
#        95103
#        114396
#        133780
#        152432
#        164132
#        179454
#        198719
#        216277
#
# Disc length: 3320 seconds
#
# Revision: 0
# Processed by: cddbd v1.5.2PL0 Copyright (c) Steve Scherf et al.
# Submitted via: ExactAudioCopy v1.3
#
DISCID=b80cf60d
DTITLE=Head Honchos - Bring It On Home
DYEAR=2018
DGENRE=Blues Rock
TTITLE0=Not For Me
TTITLE1=Old And Tired
TTITLE2=Work
TTITLE3=Come Strong
TTITLE4=Next To You
TTITLE5=Mean Old World
TTITLE6=Fire On The Bayou
TTITLE7=Lucky's Train
TTITLE8=Whiskey Devil
TTITLE9=That Driving Beat
TTITLE10=99 1-2 Won't Do
TTITLE11=Going Down
TTITLE12=Soul Free
EXTD=
EXTT0=
EXTT1=
EXTT2=
EXTT3=
EXTT4=
EXTT5=
EXTT6=
EXTT7=
EXTT8=
EXTT9=
EXTT10=
EXTT11=
EXTT12=
PLAYORDER=
